<svg id="artwork" xmlns="http://www.w3.org/2000/svg" viewBox="0 0 110.53 15.32"><defs><style>.cls-1{fill:#fff;}.cls-2{fill:#e8ab25;}</style></defs><path class="cls-1" d="M.43,11.7a.39.39,0,0,1-.3-.13A.42.42,0,0,1,0,11.25V.61A.4.4,0,0,1,.13.3.39.39,0,0,1,.43.16H4.72A3.83,3.83,0,0,1,6.41.49a3,3,0,0,1,1.07.79,2.76,2.76,0,0,1,.57,1,3.42,3.42,0,0,1,.17,1,2.58,2.58,0,0,1-.16,1,2.8,2.8,0,0,1-.37.69,2.07,2.07,0,0,1-.43.45L7,5.59A4,4,0,0,1,8,6.72a2.93,2.93,0,0,1,.45,1.63,3.38,3.38,0,0,1-.22,1.22,3.2,3.2,0,0,1-.66,1.07,3.29,3.29,0,0,1-1.11.77A3.83,3.83,0,0,1,5,11.7Zm1.09-10V5h3a2.55,2.55,0,0,0,1.6-.43A1.5,1.5,0,0,0,6.7,3.31a1.46,1.46,0,0,0-.54-1.23,2.48,2.48,0,0,0-1.6-.43Zm0,4.81v3.76H4.79a2.73,2.73,0,0,0,.94-.15,2,2,0,0,0,.68-.41A1.8,1.8,0,0,0,7,8.35a2.11,2.11,0,0,0-.13-.7A1.66,1.66,0,0,0,6.43,7a1.74,1.74,0,0,0-.67-.42,2.6,2.6,0,0,0-1-.16Z"/><path class="cls-1" d="M14.71,3.13a.38.38,0,0,1,.3.13.44.44,0,0,1,.13.32V4.1a.44.44,0,0,1-.13.32.42.42,0,0,1-.3.13h-.93a1.65,1.65,0,0,0-1.84,1.89v4.81a.45.45,0,0,1-.12.32.42.42,0,0,1-.31.13h-.59a.38.38,0,0,1-.3-.13.42.42,0,0,1-.13-.32V3.58a.44.44,0,0,1,.13-.32.38.38,0,0,1,.3-.13h.59a.42.42,0,0,1,.31.13.47.47,0,0,1,.12.32v.51a2.13,2.13,0,0,1,.77-.73,2.62,2.62,0,0,1,1.17-.23Z"/><path class="cls-1" d="M16,6.59a4.5,4.5,0,0,1,.36-1.42A3.94,3.94,0,0,1,17.08,4a3.21,3.21,0,0,1,1.11-.77A3.54,3.54,0,0,1,19.64,3a4,4,0,0,1,1.54.28,3.24,3.24,0,0,1,1.16.84,3.71,3.71,0,0,1,.73,1.31,5.58,5.58,0,0,1,.26,1.74v.44a.42.42,0,0,1-.13.31.39.39,0,0,1-.3.13H17.4v.1a2.37,2.37,0,0,0,.66,1.73,2.21,2.21,0,0,0,1.58.6A2.65,2.65,0,0,0,21,10.19a2.83,2.83,0,0,0,.72-.57,1.46,1.46,0,0,1,.22-.18.69.69,0,0,1,.29,0h.48a.52.52,0,0,1,.32.13.36.36,0,0,1,.11.32,1.73,1.73,0,0,1-.27.65,2.69,2.69,0,0,1-.65.66,4,4,0,0,1-1.06.51,4.67,4.67,0,0,1-1.47.2,3.46,3.46,0,0,1-1.44-.28,3.58,3.58,0,0,1-1.12-.8,4,4,0,0,1-.75-1.18A4.79,4.79,0,0,1,16,8.11,7.72,7.72,0,0,1,16,6.59Zm1.43,0h4.49v0A2.17,2.17,0,0,0,21.27,5a2.23,2.23,0,0,0-1.63-.6,2.49,2.49,0,0,0-.87.16,2.13,2.13,0,0,0-.7.44,2.29,2.29,0,0,0-.48.7,2.46,2.46,0,0,0-.19.91Z"/><path class="cls-1" d="M32.84,9l1.79-5.5a.85.85,0,0,1,.18-.27.48.48,0,0,1,.37-.13h.52a.38.38,0,0,1,.28.12.39.39,0,0,1,.11.28.69.69,0,0,1,0,.13l-2.44,7.58a1.28,1.28,0,0,1-.17.33.37.37,0,0,1-.31.13h-.5a.37.37,0,0,1-.31-.14,1.93,1.93,0,0,1-.19-.32l-1.9-5.47-1.9,5.47a1.92,1.92,0,0,1-.18.32.39.39,0,0,1-.32.14h-.49a.36.36,0,0,1-.31-.13,1,1,0,0,1-.17-.33L24.43,3.66a.62.62,0,0,1,0-.13.36.36,0,0,1,.11-.28.34.34,0,0,1,.27-.12h.53a.49.49,0,0,1,.37.13.81.81,0,0,1,.17.27L27.66,9l1.92-5.5a.91.91,0,0,1,.15-.27.42.42,0,0,1,.35-.13h.35a.4.4,0,0,1,.34.13.91.91,0,0,1,.15.27Z"/><path class="cls-1" d="M37.26,6.59a4.49,4.49,0,0,1,.35-1.42A3.94,3.94,0,0,1,38.36,4a3.21,3.21,0,0,1,1.11-.77A3.54,3.54,0,0,1,40.92,3a4,4,0,0,1,1.54.28,3.24,3.24,0,0,1,1.16.84,3.71,3.71,0,0,1,.73,1.31,5.3,5.3,0,0,1,.26,1.74v.44a.42.42,0,0,1-.13.31.38.38,0,0,1-.3.13h-5.5v.1a2.37,2.37,0,0,0,.66,1.73,2.21,2.21,0,0,0,1.58.6,2.72,2.72,0,0,0,1.32-.26A2.77,2.77,0,0,0,43,9.62a1.46,1.46,0,0,1,.22-.18.72.72,0,0,1,.29,0h.48a.5.5,0,0,1,.32.13.36.36,0,0,1,.11.32,1.73,1.73,0,0,1-.27.65,2.69,2.69,0,0,1-.65.66,4,4,0,0,1-1.05.51,4.78,4.78,0,0,1-1.48.2,3.3,3.3,0,0,1-2.55-1.08,3.8,3.8,0,0,1-.76-1.18,4.78,4.78,0,0,1-.35-1.49A6.44,6.44,0,0,1,37.26,6.59Zm1.42,0h4.49v0A2.16,2.16,0,0,0,42.56,5a2.25,2.25,0,0,0-1.64-.6,2.49,2.49,0,0,0-.87.16,2.13,2.13,0,0,0-.7.44,2.29,2.29,0,0,0-.48.7,2.46,2.46,0,0,0-.19.91Z"/><path class="cls-1" d="M50.77,3.13a.41.41,0,0,1,.3.13.44.44,0,0,1,.13.32V4.1a.44.44,0,0,1-.13.32.45.45,0,0,1-.3.13h-.93A1.65,1.65,0,0,0,48,6.44v4.81a.42.42,0,0,1-.13.32.38.38,0,0,1-.3.13H47a.42.42,0,0,1-.31-.13.46.46,0,0,1-.13-.32V3.58a.48.48,0,0,1,.13-.32A.42.42,0,0,1,47,3.13h.59a.38.38,0,0,1,.3.13.44.44,0,0,1,.13.32v.51a2.06,2.06,0,0,1,.77-.73,2.6,2.6,0,0,1,1.16-.23Z"/><path class="cls-1" d="M57.32,9.33a.76.76,0,0,0-.17-.52,1.32,1.32,0,0,0-.5-.36,5.43,5.43,0,0,0-.86-.28l-1.2-.28A3,3,0,0,1,52.77,7a2.39,2.39,0,0,1-.52-1.52,2.5,2.5,0,0,1,.19-.94A2.22,2.22,0,0,1,53,3.71a2.93,2.93,0,0,1,1-.55A4.3,4.3,0,0,1,55.35,3a4.64,4.64,0,0,1,1.37.18,3.49,3.49,0,0,1,1,.46,2.43,2.43,0,0,1,.6.6,1.25,1.25,0,0,1,.23.62.37.37,0,0,1-.12.31.43.43,0,0,1-.31.13h-.53a.7.7,0,0,1-.23,0A.46.46,0,0,1,57.1,5a1.72,1.72,0,0,0-.62-.47,2.84,2.84,0,0,0-1.13-.19,2.33,2.33,0,0,0-1.19.28.88.88,0,0,0-.45.78.84.84,0,0,0,.13.5.93.93,0,0,0,.41.33,4.41,4.41,0,0,0,.76.26l1.18.28a5.18,5.18,0,0,1,1.23.42,3.16,3.16,0,0,1,.8.57,2,2,0,0,1,.43.71,2.76,2.76,0,0,1,.13.82,2.14,2.14,0,0,1-.23.95,2.46,2.46,0,0,1-.67.81,3.49,3.49,0,0,1-1.05.56,4.27,4.27,0,0,1-1.39.21,4.6,4.6,0,0,1-1.4-.19,4.79,4.79,0,0,1-1-.49,2.5,2.5,0,0,1-.66-.63,1.26,1.26,0,0,1-.25-.63.36.36,0,0,1,.12-.31.41.41,0,0,1,.32-.13h.57a.9.9,0,0,1,.22,0,.39.39,0,0,1,.24.19,1.66,1.66,0,0,0,.71.56,3,3,0,0,0,1.17.2,2.72,2.72,0,0,0,.69-.09,2.21,2.21,0,0,0,.61-.23,1.21,1.21,0,0,0,.42-.35A.71.71,0,0,0,57.32,9.33Z"/><path class="cls-2" d="M61.29,11.7a.42.42,0,0,1-.31-.13.46.46,0,0,1-.13-.32V.61A.44.44,0,0,1,61,.3a.43.43,0,0,1,.31-.14h.65a.43.43,0,0,1,.31.14.43.43,0,0,1,.12.31V11.25a.45.45,0,0,1-.12.32.42.42,0,0,1-.31.13Z"/><path class="cls-2" d="M72.34,11.25a.46.46,0,0,1-.13.32.42.42,0,0,1-.31.13h-.59a.38.38,0,0,1-.3-.13.42.42,0,0,1-.13-.32V6.9A2.69,2.69,0,0,0,70.29,5,2.44,2.44,0,0,0,67,5,2.61,2.61,0,0,0,66.4,6.9v4.35a.45.45,0,0,1-.12.32.42.42,0,0,1-.31.13h-.59a.38.38,0,0,1-.3-.13.42.42,0,0,1-.13-.32V3.58a.44.44,0,0,1,.13-.32.38.38,0,0,1,.3-.13H66a.42.42,0,0,1,.31.13.47.47,0,0,1,.12.32v.51a3.1,3.1,0,0,1,.91-.77A3,3,0,0,1,68.88,3a3.7,3.7,0,0,1,1.39.25,3.07,3.07,0,0,1,1.1.73,3.29,3.29,0,0,1,.71,1.16,4.46,4.46,0,0,1,.26,1.55Z"/><path class="cls-2" d="M79.39,9.33a.81.81,0,0,0-.17-.52,1.32,1.32,0,0,0-.5-.36,5.8,5.8,0,0,0-.86-.28l-1.21-.28A3,3,0,0,1,74.84,7a2.34,2.34,0,0,1-.52-1.52,2.32,2.32,0,0,1,.19-.94,2.22,2.22,0,0,1,.58-.79,2.78,2.78,0,0,1,1-.55A4.36,4.36,0,0,1,77.42,3a4.69,4.69,0,0,1,1.37.18,3.43,3.43,0,0,1,1,.46,2.32,2.32,0,0,1,.61.6,1.23,1.23,0,0,1,.22.62.37.37,0,0,1-.12.31.42.42,0,0,1-.31.13h-.53a.74.74,0,0,1-.23,0A.54.54,0,0,1,79.16,5a1.68,1.68,0,0,0-.61-.47,2.84,2.84,0,0,0-1.13-.19,2.3,2.3,0,0,0-1.19.28.89.89,0,0,0-.46.78.92.92,0,0,0,.13.5,1,1,0,0,0,.42.33,4.13,4.13,0,0,0,.76.26l1.17.28a5.18,5.18,0,0,1,1.23.42,3,3,0,0,1,.8.57,1.88,1.88,0,0,1,.43.71,2.47,2.47,0,0,1,.13.82,2.14,2.14,0,0,1-.23.95,2.43,2.43,0,0,1-.66.81,3.49,3.49,0,0,1-1,.56,4.34,4.34,0,0,1-1.4.21,4.21,4.21,0,0,1-2.43-.68,2.23,2.23,0,0,1-.66-.63,1.18,1.18,0,0,1-.25-.63.39.39,0,0,1,.11-.31.42.42,0,0,1,.32-.13h.58a.94.94,0,0,1,.22,0,.42.42,0,0,1,.24.19,1.63,1.63,0,0,0,.7.56,3,3,0,0,0,1.17.2,2.8,2.8,0,0,0,.7-.09,2.14,2.14,0,0,0,.6-.23,1.25,1.25,0,0,0,.43-.35A.77.77,0,0,0,79.39,9.33Z"/><path class="cls-2" d="M84.36,1.38a.42.42,0,0,1-.13.32.39.39,0,0,1-.3.13H83a.42.42,0,0,1-.31-.13.46.46,0,0,1-.13-.32V.44a.46.46,0,0,1,.13-.31A.42.42,0,0,1,83,0h.91a.39.39,0,0,1,.3.13.42.42,0,0,1,.13.31Zm-.16,9.87a.42.42,0,0,1-.13.32.38.38,0,0,1-.3.13h-.59a.42.42,0,0,1-.31-.13.46.46,0,0,1-.13-.32V3.58a.48.48,0,0,1,.13-.32.42.42,0,0,1,.31-.13h.59a.38.38,0,0,1,.3.13.44.44,0,0,1,.13.32Z"/><path class="cls-2" d="M86.2,6.87a5.13,5.13,0,0,1,.33-1.63A4,4,0,0,1,87.3,4a3.39,3.39,0,0,1,1.13-.77A3.6,3.6,0,0,1,89.83,3a3,3,0,0,1,1.58.35,3.05,3.05,0,0,1,.9.77V3.58a.47.47,0,0,1,.12-.32.42.42,0,0,1,.31-.13h.59a.38.38,0,0,1,.3.13.44.44,0,0,1,.13.32v8a3.82,3.82,0,0,1-.94,2.73,3.66,3.66,0,0,1-2.83,1,5.23,5.23,0,0,1-1.64-.23,3.7,3.7,0,0,1-1.12-.6,2.55,2.55,0,0,1-.66-.79,2,2,0,0,1-.23-.82.37.37,0,0,1,.12-.31.43.43,0,0,1,.31-.13h.48a.49.49,0,0,1,.3.09.84.84,0,0,1,.23.35,2,2,0,0,0,.15.27,1.21,1.21,0,0,0,.34.34,2.17,2.17,0,0,0,.61.3,3.14,3.14,0,0,0,1,.12,4.32,4.32,0,0,0,1-.11,2.11,2.11,0,0,0,.79-.35,1.61,1.61,0,0,0,.52-.66,2.37,2.37,0,0,0,.19-1v-1a3,3,0,0,1-.91.79,3.24,3.24,0,0,1-1.57.33,3.6,3.6,0,0,1-1.4-.27,3.39,3.39,0,0,1-1.13-.77,4,4,0,0,1-.77-1.23A5.13,5.13,0,0,1,86.2,8c0-.17,0-.35,0-.54S86.19,7,86.2,6.87Zm6.11,0A2.63,2.63,0,0,0,91.63,5,2.19,2.19,0,0,0,90,4.38a2.06,2.06,0,0,0-1.66.7A3,3,0,0,0,87.65,7q0,.46,0,.93a3,3,0,0,0,.68,1.88,2.08,2.08,0,0,0,1.66.69,2.2,2.2,0,0,0,1.64-.65A2.63,2.63,0,0,0,92.31,8c0-.17,0-.36,0-.59S92.32,7,92.31,6.82Z"/><path class="cls-2" d="M103.55,11.25a.46.46,0,0,1-.13.32.42.42,0,0,1-.31.13h-.59a.39.39,0,0,1-.3-.13.42.42,0,0,1-.13-.32V6.9A2.69,2.69,0,0,0,101.5,5a2.44,2.44,0,0,0-3.27,0,2.61,2.61,0,0,0-.62,1.89v4.35a.45.45,0,0,1-.12.32.42.42,0,0,1-.31.13h-.59a.38.38,0,0,1-.3-.13.42.42,0,0,1-.13-.32V.44a.42.42,0,0,1,.13-.31.38.38,0,0,1,.3-.13h.59a.42.42,0,0,1,.31.13.45.45,0,0,1,.12.31V4.09a3.1,3.1,0,0,1,.91-.77A3,3,0,0,1,100.09,3a3.7,3.7,0,0,1,1.39.25,3,3,0,0,1,1.1.73,3.29,3.29,0,0,1,.71,1.16,4.46,4.46,0,0,1,.26,1.55Z"/><path class="cls-2" d="M107.91,8.82a2.72,2.72,0,0,0,.06.58,1.05,1.05,0,0,0,.2.47,1,1,0,0,0,.41.31,1.82,1.82,0,0,0,.67.1h.85a.46.46,0,0,1,.31.13.47.47,0,0,1,.12.32v.52a.45.45,0,0,1-.12.32.42.42,0,0,1-.31.13h-1a2.51,2.51,0,0,1-2-.74,3.23,3.23,0,0,1-.62-2.14V4.55h-1.19a.45.45,0,0,1-.3-.13.44.44,0,0,1-.13-.32V3.58a.44.44,0,0,1,.13-.32.41.41,0,0,1,.3-.13h1.19V.44a.45.45,0,0,1,.12-.31.42.42,0,0,1,.31-.13h.59a.38.38,0,0,1,.3.13.42.42,0,0,1,.13.31V3.13h2a.42.42,0,0,1,.31.13.47.47,0,0,1,.12.32V4.1a.47.47,0,0,1-.12.32.46.46,0,0,1-.31.13h-2Z"/></svg>