<?xml version="1.0" encoding="UTF-8"?> <svg xmlns="http://www.w3.org/2000/svg" xmlns:xlink="http://www.w3.org/1999/xlink" version="1.1" id="Layer_1" x="0px" y="0px" width="792px" height="235.92px" viewBox="0 -17.08 792 235.92" xml:space="preserve"> <metadata> </metadata> <g> <g> <g> <path fill="#FFFFFF" d="M76.35,27.605c3.52,8.272,7.664,17.267,12.347,26.176c3.869,7.367,8.284,14.815,12.958,22.701 c12.918,21.807,27.566,46.525,27.566,66.968c0,14.176-4.663,28.054-12.788,38.088c-9.487,11.721-22.976,17.667-40.083,17.667 s-30.593-5.946-40.084-17.667C28.14,171.504,23.48,157.626,23.48,143.45c0-20.443,14.643-45.161,27.563-66.968 c4.676-7.886,9.088-15.334,12.96-22.701C68.685,44.873,72.827,35.877,76.35,27.605 M76.35-12.418c0,0-9.488,30.582-24.777,59.664 C36.284,76.331,9.439,111.387,9.439,143.45c0,32.068,20.136,69.79,66.911,69.79c46.779,0,66.913-37.722,66.913-69.79 c0-32.063-26.849-67.119-42.134-96.204C85.838,18.164,76.35-12.418,76.35-12.418L76.35-12.418z"></path> </g> <path fill="#FFFFFF" d="M76.35,143.571L47.391,131.64c-1.521,3.674-2.36,7.704-2.36,11.932c0,17.296,14.022,31.319,31.319,31.319 c17.298,0,31.322-14.023,31.322-31.319c0-17.303-14.024-31.326-31.322-31.326c-4.581,0-8.923,0.994-12.842,2.76L76.35,143.571z"></path> </g> <g> <path fill="#FFFFFF" d="M189.316,88.017h36.517c19.746,0,31.535-10.368,31.535-27.734c0-11.17-4.243-19.141-12.619-23.708 c6.438-5.003,9.08-10.864,9.08-20.024c0-16.263-11.578-26.772-29.501-26.772h-35.012c-4.305,0-6.062,1.876-6.062,6.473v85.428 C183.254,86.122,185.068,88.017,189.316,88.017z M220.928,27.794h-11.923V11.712h11.923c4.946,0,7.56,2.804,7.56,8.11 C228.487,25.111,225.943,27.794,220.928,27.794z M223.51,48.778c3.637,0,7.972,1.477,7.972,8.513c0,5.498-2.907,8.651-7.972,8.651 h-14.505V48.778H223.51z"></path> <path fill="#FFFFFF" d="M293.471,81.681V54.362h3.2c4.831,0,6.302,1.681,8.853,7.453l8.574,19.883 c2.107,4.96,4.481,6.318,11.046,6.318h13.358c2.084,0,3.527-0.609,4.287-1.816c0.831-1.319,0.712-3.183-0.343-5.395L329.912,54.66 c-0.772-1.658-1.963-3.904-3.446-5.729c9.791-5.298,14.555-13.983,14.555-26.52c0-20.432-12.404-32.631-33.178-32.631h-33.927 c-4.404,0-6.2,1.834-6.2,6.335v85.566c0,4.501,1.795,6.336,6.2,6.336h13.353C291.732,88.017,293.471,86.241,293.471,81.681z M293.471,32.153V13.082h12.742c5.672,0,9.06,3.487,9.06,9.329c0,6.192-3.304,9.743-9.06,9.743H293.471z"></path> <path fill="#FFFFFF" d="M418.538,81.681V71.054c0-4.618-1.68-6.335-6.199-6.335H378.88v-14.72h25.557 c4.46,0,6.196-1.813,6.196-6.467V33.04c0-4.561-1.736-6.339-6.196-6.339H378.88v-13.62h32.359c4.469,0,6.209-1.816,6.209-6.478 V-3.885c0-4.56-1.74-6.335-6.209-6.335h-51.904c-4.401,0-6.195,1.834-6.195,6.335v85.566c0,4.501,1.794,6.336,6.195,6.336h53.004 C416.803,88.017,418.538,86.241,418.538,81.681z"></path> <path fill="#FFFFFF" d="M472.467,82.776l7.625-38.549c1.067-5.122,1.801-10.445,2.305-16.843 c0.248,5.195,0.909,10.928,1.954,16.835l7.625,38.83c0.876,4.366,4.078,4.968,7.408,4.968h14.588c3.685,0,6.185-0.87,7.27-5.213 l20.294-86.637c0.603-2.319,0.508-3.826-0.313-4.886c-0.79-1.023-2.178-1.501-4.362-1.501h-14.443 c-4.393,0-6.484,0.799-7.277,5.535l-6.548,39.375c-0.829,5.105-1.259,12.454-1.545,17.964c-0.437-5.264-1.23-12.464-2.289-17.99 l-7.765-39.375c-0.923-4.608-3.612-5.509-7.947-5.509h-11.723c-4.385,0-6.933,0.879-7.824,5.497l-8.58,39.366 c-1.132,4.951-1.846,11.728-2.207,17.102c-0.258-5.576-0.821-12.614-1.497-17.055l-6.406-39.375 c-0.781-4.707-3.058-5.535-7.55-5.535h-15.395c-1.984,0-3.242,0.429-3.953,1.352c-0.98,1.267-0.664,3.168-0.183,5.015 l20.159,86.925c1.012,4.347,4.161,4.945,7.413,4.945h13.894C468.883,88.017,471.532,87.127,472.467,82.776z"></path> <path fill="#FFFFFF" d="M609.74,64.718h-33.451v-14.72h25.551c4.46,0,6.195-1.813,6.195-6.467V33.04 c0-4.561-1.735-6.339-6.195-6.339h-25.551v-13.62h32.364c4.464,0,6.202-1.816,6.202-6.478V-3.885c0-4.56-1.738-6.335-6.202-6.335 h-51.907c-4.41,0-6.209,1.834-6.209,6.335v85.566c0,4.501,1.799,6.336,6.209,6.336h52.994c4.462,0,6.201-1.776,6.201-6.336V71.054 C615.941,66.436,614.261,64.718,609.74,64.718z"></path> <path fill="#FFFFFF" d="M683.85,88.017h13.356c2.09,0,3.536-0.612,4.296-1.82c0.829-1.319,0.708-3.183-0.352-5.391L688.624,54.66 c-0.769-1.652-1.958-3.896-3.446-5.729c9.79-5.302,14.551-13.988,14.551-26.521c0-20.432-12.403-32.631-33.182-32.631h-33.923 c-4.405,0-6.2,1.834-6.2,6.335v85.566c0,4.501,1.795,6.336,6.2,6.336h13.35c4.462,0,6.198-1.776,6.198-6.336V54.362h3.208 c4.826,0,6.297,1.681,8.848,7.453l8.579,19.883C674.914,86.659,677.287,88.017,683.85,88.017z M673.978,22.41 c0,6.192-3.304,9.743-9.063,9.743h-12.743V13.082h12.743C670.59,13.082,673.978,16.568,673.978,22.41z"></path> <path fill="#FFFFFF" d="M745.563,67.301c-6.4,0-11.088-2.835-13.205-7.996c-1.351-3.114-2.797-4.386-4.985-4.386 c-0.897,0-1.948,0.226-3.299,0.708l-11.998,4.09c-3.961,1.372-5.069,3.892-3.601,8.153c4.631,14.305,17.805,22.184,37.088,22.184 c24.247,0,39.307-12.033,39.307-31.403c0-24.924-19.27-30.011-33.757-31.669c-10.155-1.321-16.385-2.461-16.385-8.932 c0-5.371,3.378-7.562,11.657-7.562c5.819,0,10.337,2.622,12.396,7.191c0.966,2.15,2.185,4.143,4.532,4.143 c0.834,0,1.791-0.235,3.102-0.758l11.822-4.62c2.122-0.757,3.433-1.784,4.013-3.142c0.601-1.402,0.414-3.157-0.58-5.383 c-6.597-13.77-17.806-20.184-35.284-20.184c-23.243,0-37.683,11.877-37.683,30.996c0,26.903,23.123,29.738,35.543,31.262 c10.179,1.279,14.329,3.749,14.329,8.522C758.574,64.674,754.684,67.301,745.563,67.301z"></path> <path fill="#FFFFFF" d="M189.361,106.067h-3.538c-1.703,0-2.568,0.865-2.568,2.57v101.419c0,1.822,0.839,2.709,2.568,2.709h3.538 c1.655,0,2.565-0.962,2.565-2.709V108.637C191.926,106.933,191.063,106.067,189.361,106.067z"></path> <path fill="#FFFFFF" d="M293.359,106.067h-3.096c-1.854,0-2.716,0.862-2.716,2.715v66.576c0,8.866,0.399,17.053,0.816,23.659 c-0.482-0.874-0.964-1.749-1.444-2.622c-2.881-5.234-5.861-10.643-9.295-16.065L231.9,107.617 c-0.503-0.999-1.483-1.549-2.76-1.549h-3.686c-1.881,0-2.717,0.885-2.717,2.87v100.97c0,1.977,0.836,2.858,2.717,2.858h2.946 c2.007,0,2.865-0.855,2.865-2.858v-68.794c0-5.091-0.206-10.053-0.407-14.851c-0.088-2.116-0.175-4.196-0.239-6.229 c0.767,1.404,1.538,2.829,2.319,4.271c2.148,3.971,4.368,8.075,6.772,12.146l47.072,74.658c0.799,1.4,1.597,1.656,2.883,1.656 h3.693c1.874,0,2.708-0.882,2.708-2.858v-100.97C296.067,106.953,295.232,106.067,293.359,106.067z"></path> <path fill="#FFFFFF" d="M360.853,155.082c-16.1-1.989-29.431-4.959-29.431-21.198c0-13.659,9.664-21.496,26.515-21.496 c14.205,0,22.732,5.484,28.574,18.451c0.705,1.124,1.782,2.001,3.476,1.127l2.938-1.031c1.172-0.393,1.628-1.059,1.804-1.549 c0.176-0.491,0.244-1.303-0.364-2.246c-7.342-16.218-18.238-23.139-36.428-23.139c-21.8,0-35.341,11.507-35.341,30.031 c0,24.603,21.814,27.509,36.263,29.433c15.837,1.891,27.953,4.608,27.953,20.602c0,15.059-9.257,22.379-28.296,22.379 c-14.872,0-23.933-6.413-29.398-20.841c-0.283-0.634-0.808-1.813-2.177-1.813c-0.367,0-0.769,0.08-1.343,0.269l-3.109,1.038 c-2.285,0.785-2.019,2.484-1.614,3.716c6.364,17.751,18.323,26.022,37.641,26.022c23.938,0,37.12-10.873,37.12-30.615 C395.635,161.397,378.454,157.311,360.853,155.082z"></path> <path fill="#FFFFFF" d="M427.235,106.067h-3.54c-1.703,0-2.565,0.865-2.565,2.57v101.419c0,1.822,0.838,2.709,2.565,2.709h3.54 c1.655,0,2.566-0.962,2.566-2.709V108.637C429.802,106.933,428.938,106.067,427.235,106.067z"></path> <path fill="#FFFFFF" d="M530.052,157.882H496.39c-1.877,0-2.715,0.884-2.715,2.874v2.646c0,1.847,0.864,2.709,2.715,2.709h27.991 v12.354c0,18.146-10.358,28.137-29.163,28.137c-18.725,0-29.034-10.411-29.034-29.319v-36.17 c0-18.891,10.038-28.875,29.034-28.875c16.072,0,24.274,6.043,28.327,20.902c0.166,0.499,0.668,2.024,2.297,2.024 c0.37,0,0.771-0.079,1.234-0.232l3.008-0.909c1.755-0.652,2.313-1.814,1.762-3.639c-4.962-18.246-16.259-26.384-36.628-26.384 c-24.057,0-37.856,13.581-37.856,37.264v36.019c0,23.865,13.8,37.554,37.856,37.554c23.603,0,37.692-13.651,37.692-36.519v-17.419 C532.91,158.781,532.056,157.882,530.052,157.882z"></path> <path fill="#FFFFFF" d="M628.432,106.067h-3.39c-1.878,0-2.714,0.885-2.714,2.87v45.554h-54.501v-45.554 c0-1.985-0.841-2.87-2.72-2.87h-3.253c-1.877,0-2.714,0.885-2.714,2.87v100.97c0,1.977,0.837,2.858,2.714,2.858h3.253 c1.879,0,2.72-0.882,2.72-2.858V162.87h54.501v47.037c0,1.977,0.836,2.858,2.714,2.858h3.39c1.884,0,2.724-0.882,2.724-2.858 v-100.97C631.155,106.953,630.315,106.067,628.432,106.067z"></path> <path fill="#FFFFFF" d="M723.035,111.586v-2.648c0-1.985-0.834-2.87-2.713-2.87h-66.14c-1.875,0-2.71,0.885-2.71,2.87v2.648 c0,1.855,0.86,2.718,2.71,2.718h28.731v95.753c0,1.849,0.863,2.709,2.715,2.709h3.248c1.852,0,2.714-0.86,2.714-2.709v-95.753 h28.731C722.175,114.304,723.035,113.441,723.035,111.586z"></path> <path fill="#FFFFFF" d="M752.841,107.28h-12.762c-1.339,0-1.493,0.887-1.493,1.558v0.486c0,1.019,0.477,1.494,1.493,1.494h4.589 v12.259c0,0.579,0.209,1.557,1.614,1.557h0.434c1.453,0,1.608-1.089,1.608-1.557v-12.259h4.517c0.996,0,1.498-0.503,1.498-1.494 v-0.486C754.339,107.804,753.837,107.28,752.841,107.28z"></path> <path fill="#FFFFFF" d="M760.23,123.076v-8.205l3.65,5.464c0.448,0.576,0.816,0.675,1.422,0.675h0.246 c0.66,0,1.042-0.187,1.52-0.785l3.549-5.355v8.207c0,1.019,0.54,1.557,1.557,1.557h0.553c0.992,0,1.495-0.523,1.495-1.557v-14.302 c0-0.683-0.262-1.495-1.495-1.495h-0.433c-0.813,0-1.192,0.494-1.464,0.851l-5.399,8.19l-5.399-8.305 c-0.417-0.535-0.818-0.737-1.486-0.737h-0.297c-0.4,0-1.622,0-1.622,1.558v14.239c0,1.019,0.539,1.557,1.56,1.557h0.558 C760.23,124.633,760.23,123.502,760.23,123.076z"></path> </g> </g> </svg> 