<svg width="28" height="28" viewBox="0 0 28 28" fill="none" xmlns="http://www.w3.org/2000/svg">
<g clip-path="url(#clip0_71_3)">
<path d="M3.12155 25C2.25758 25 1.52133 24.7026 0.912797 24.1079C0.304266 23.5132 0 22.7937 0 21.9494V6.05062C0 5.20628 0.304266 4.48676 0.912797 3.89205C1.52133 3.29735 2.25758 3 3.12155 3H24.8784C25.7424 3 26.4787 3.29735 27.0872 3.89205C27.6957 4.48676 28 5.20628 28 6.05062V21.9494C28 22.7937 27.6957 23.5132 27.0872 24.1079C26.4787 24.7026 25.7424 25 24.8784 25H3.12155ZM14 15.6856L24.8784 8.98089C24.8784 8.98089 26 8.5 26 7C26 5.5 24.8784 6.05062 24.8784 6.05062L14 12.7553L3.12155 6.05062C3.12155 6.05062 2 5.5 2 7C2 8.5 3.12155 8.98089 3.12155 8.98089L14 15.6856Z" fill="#AFAFAF"/>
</g>
<defs>
<clipPath id="clip0_71_3">
<rect width="28" height="28" fill="white"/>
</clipPath>
</defs>
</svg>
