<svg width="28" height="22" viewBox="0 0 28 22" fill="none" xmlns="http://www.w3.org/2000/svg">
<path d="M3.12155 22C2.25758 22 1.52133 21.7026 0.912797 21.1079C0.304266 20.5132 0 19.7937 0 18.9494V3.05062C0 2.20628 0.304266 1.48676 0.912797 0.892054C1.52133 0.297351 2.25758 0 3.12155 0H24.8784C25.7424 0 26.4787 0.297351 27.0872 0.892054C27.6957 1.48676 28 2.20628 28 3.05062V18.9494C28 19.7937 27.6957 20.5132 27.0872 21.1079C26.4787 21.7026 25.7424 22 24.8784 22H3.12155ZM14 12.6856L24.8784 5.98089C24.8784 5.98089 26 5.5 26 4C26 2.5 24.8784 3.05062 24.8784 3.05062L14 9.75528L3.12155 3.05062C3.12155 3.05062 2 2.5 2 4C2 5.5 3.12155 5.98089 3.12155 5.98089L14 12.6856Z" fill="#AFAFAF"/>
</svg>
