<svg width="28" height="28" viewBox="0 0 28 28" fill="none" xmlns="http://www.w3.org/2000/svg">
<path d="M25.2 0H2.8C1.26275 0 0 1.26275 0 2.8V25.2C0 26.7373 1.26275 28 2.8 28H25.2C26.7373 28 28 26.7373 28 25.2V2.8C28 1.26275 26.7373 0 25.2 0ZM8.4 23.8H4.2V11.2H8.4V23.8ZM6.30275 8.81726C4.90275 8.81726 3.78275 7.69726 3.78275 6.29726C3.78275 4.89725 4.90275 3.77726 6.30275 3.77726C7.70275 3.77726 8.82275 4.89726 8.82275 6.29726C8.82275 7.69726 7.69726 8.81726 6.30275 8.81726ZM23.8 23.8H19.6V16.3827C19.6 15.2627 18.6173 14.2855 17.5027 14.2855C16.3882 14.2855 15.4055 15.2682 15.4055 16.3827V23.8H11.2V11.2H15.4V12.88C16.1027 11.76 17.64 10.92 18.9027 10.92C21.5655 10.92 23.8 13.16 23.8 15.8227V23.8Z" fill="#AFAFAF"/>
</svg>
