<?xml version="1.0" encoding="utf-8"?>
<!-- Generator: Adobe Illustrator 25.2.3, SVG Export Plug-In . SVG Version: 6.00 Build 0)  -->
<svg version="1.1" id="Layer_1" xmlns="http://www.w3.org/2000/svg" xmlns:xlink="http://www.w3.org/1999/xlink" x="0px" y="0px"
	 viewBox="0 0 139 20" style="enable-background:new 0 0 139 20;" xml:space="preserve">
<style type="text/css">
	.st0{fill:#2D2F3D;}
	.st1{fill-rule:evenodd;clip-rule:evenodd;fill:#F2C60F;}
	.st2{fill-rule:evenodd;clip-rule:evenodd;fill:#F24314;}
	.st3{fill-rule:evenodd;clip-rule:evenodd;fill:#0089C6;}
</style>
<g id="Layer_1_1_">
	<g>
		<path class="st0" d="M26.7,4.9h2.6c1.4,0,2.5,0.5,3.6,1.5c1,1,1.5,2.2,1.5,3.6s-0.5,2.6-1.5,3.7c-1,1-2.2,1.5-3.6,1.5h-2.6
			c-0.6,0-0.9-0.1-1.1-0.4c-0.1-0.2-0.2-0.5-0.2-0.9V6.1c0-0.2,0-0.4,0-0.5s0.1-0.2,0.1-0.4C25.7,5,26.1,4.9,26.7,4.9z M31.1,11.9
			c0.5-0.5,0.8-1.1,0.8-1.9s-0.3-1.4-0.8-1.9S30,7.3,29.2,7.3h-1.3v5.3h1.4C29.9,12.7,30.5,12.4,31.1,11.9z"/>
		<path class="st0" d="M42.4,10.6c0,0.6-0.1,1-0.4,1.3c-0.3,0.3-0.6,0.4-0.9,0.4h-3.3c0,0.3,0.2,0.5,0.5,0.7s0.6,0.3,0.9,0.3
			c0.5,0,1-0.1,1.3-0.2l0.2-0.1c0.2-0.1,0.4-0.2,0.6-0.2c0.3,0,0.6,0.2,0.8,0.6c0.1,0.3,0.2,0.5,0.2,0.6c0,0.8-1,1.2-3,1.2
			c-0.7,0-1.3-0.1-1.8-0.4s-1-0.6-1.3-0.9c-0.6-0.8-0.9-1.6-0.9-2.5c0-1.2,0.4-2.1,1.1-2.8c0.6-0.6,1.5-1,2.6-1
			c1.3,0,2.2,0.5,2.9,1.4C42.2,9.5,42.4,10,42.4,10.6z M39.4,11c0.4,0,0.5-0.1,0.5-0.4c0-0.2-0.1-0.4-0.2-0.5
			C39.5,10,39.3,9.9,39,9.9s-0.6,0.1-0.9,0.4c-0.3,0.2-0.4,0.5-0.4,0.8h1.7V11z"/>
		<path class="st0" d="M43.3,14.5C43.1,14.4,43,14.2,43,14s0.2-0.6,0.5-1.1c0.1-0.2,0.3-0.2,0.5-0.2s0.5,0.1,0.9,0.3
			s0.7,0.3,1.1,0.3c0.6,0,0.9-0.1,0.9-0.3s-0.3-0.3-0.9-0.4c-0.6-0.1-1.2-0.3-1.8-0.7c-0.3-0.2-0.5-0.4-0.7-0.8
			c-0.2-0.4-0.3-0.8-0.3-1.3c0-1.5,1-2.2,3-2.2c0.7,0,1.3,0.2,2,0.5c0.3,0.1,0.5,0.3,0.5,0.6s-0.1,0.5-0.3,0.8
			c0,0.3-0.2,0.5-0.4,0.5c-0.1,0-0.3-0.1-0.6-0.2s-0.6-0.2-1-0.2c-0.6,0-0.8,0.1-0.8,0.3c0,0.3,0.3,0.5,1,0.5
			c0.6,0.1,1.2,0.2,1.8,0.5c0.3,0.1,0.5,0.4,0.7,0.7s0.3,0.7,0.3,1.2s-0.1,0.9-0.3,1.2s-0.4,0.6-0.8,0.8c-0.6,0.3-1.3,0.4-2.2,0.4
			S44.2,15,43.3,14.5z"/>
		<path class="st0" d="M52.4,6.4c-0.1,0.1-0.2,0.2-0.4,0.3c-0.2,0.1-0.4,0.1-0.7,0.1s-0.5,0-0.7-0.1s-0.3-0.2-0.4-0.3s0-0.3,0-0.4
			s0-0.3,0-0.5s0-0.4,0-0.5s0.1-0.2,0.1-0.4c0.1-0.3,0.5-0.4,1.1-0.4s0.9,0.1,1.1,0.4c0.1,0.1,0.1,0.3,0.1,0.4s0,0.3,0,0.5
			s0,0.4,0,0.5C52.5,6.1,52.5,6.3,52.4,6.4z M50.1,9c0-0.2,0-0.4,0-0.5s0.1-0.2,0.1-0.4c0.1-0.2,0.5-0.4,1.1-0.4
			c0.4,0,0.8,0.1,1,0.2s0.2,0.3,0.3,0.6c0,0.1,0,0.2,0,0.4v4.9c0,0.2,0,0.4,0,0.5s-0.1,0.2-0.1,0.4c-0.1,0.2-0.5,0.4-1.1,0.4
			s-0.9-0.1-1.1-0.4c-0.1-0.1-0.1-0.3-0.1-0.4s0-0.3,0-0.5V9H50.1z"/>
		<path class="st0" d="M58.4,14.2c-0.4,0.5-0.9,0.7-1.7,0.7s-1.5-0.4-2.2-1.1c-0.7-0.7-1-1.5-1-2.5s0.3-1.8,1-2.5s1.4-1.1,2.2-1.1
			c0.3,0,0.6,0.1,0.9,0.2s0.4,0.2,0.5,0.3c0.1,0.1,0.2,0.2,0.2,0.3c0-0.3,0.1-0.5,0.3-0.6s0.4-0.2,0.8-0.2c0.4,0,0.6,0,0.8,0.1
			s0.3,0.2,0.4,0.3c0.1,0.1,0.1,0.3,0.1,0.4c0,0.1,0,0.3,0,0.5v5.8c0,1.1-0.4,1.9-1.1,2.6c-0.7,0.7-1.6,1-2.5,1
			c-0.7,0-1.4-0.2-2-0.5s-1-0.7-1-0.9c0-0.4,0.1-0.7,0.4-1c0.2-0.2,0.3-0.3,0.4-0.4c0.1-0.1,0.2-0.1,0.3-0.1s0.3,0.1,0.4,0.2
			c0.4,0.3,0.9,0.5,1.5,0.5c0.4,0,0.6-0.1,0.9-0.4s0.3-0.6,0.3-1L58.4,14.2L58.4,14.2z M55.9,11.4c0,0.3,0.1,0.6,0.4,0.8
			c0.2,0.2,0.5,0.4,0.9,0.4c0.3,0,0.6-0.1,0.8-0.4s0.3-0.5,0.3-0.8s-0.1-0.6-0.3-0.8c-0.2-0.3-0.5-0.4-0.9-0.4s-0.7,0.1-0.9,0.4
			S55.9,11.1,55.9,11.4z"/>
		<path class="st0" d="M66,7.8c0.9,0,1.7,0.4,2.3,1.1c0.6,0.7,0.9,1.6,0.9,2.6V14c0,0.2,0,0.4,0,0.5s-0.1,0.2-0.1,0.4
			C69,15,68.6,15.1,68,15.1c-0.7,0-1-0.2-1.1-0.5c-0.1-0.2-0.1-0.4-0.1-0.7v-2.5c0-0.4-0.1-0.7-0.3-0.9s-0.5-0.3-0.9-0.3
			s-0.7,0.1-0.9,0.3c-0.2,0.2-0.3,0.5-0.3,0.9v2.5c0,0.2,0,0.4,0,0.5s-0.1,0.2-0.1,0.4c-0.1,0.3-0.5,0.4-1.1,0.4s-0.9-0.1-1.1-0.4
			C62,14.7,62,14.5,62,14.4s0-0.3,0-0.5v-5c0-0.2,0-0.4,0-0.5s0-0.2,0-0.3c0.1-0.2,0.5-0.4,1.1-0.4s0.9,0.1,1,0.3s0.1,0.4,0.1,0.6
			c0-0.1,0.1-0.2,0.3-0.3c0.1-0.1,0.3-0.2,0.4-0.3C65.3,7.9,65.6,7.8,66,7.8z"/>
	</g>
</g>
<g id="Layer_2_1_">
</g>
<g>
	<g>
		<path class="st1" d="M0,5v15l8.6,0v-4.1l-4.6,0V5H0z"/>
		<g>
			<path class="st2" d="M12.1,0L12.1,0l0,9.9h0c2.7,0,5-2.2,5-5C17.1,2.2,14.9,0,12.1,0z"/>
			<path class="st2" d="M12.1,0L12.1,0l0,9.9h0c2.7,0,5-2.2,5-5C17.1,2.2,14.9,0,12.1,0z"/>
			<path class="st2" d="M12.1,0L12.1,0l0,9.9h0c2.7,0,5-2.2,5-5C17.1,2.2,14.9,0,12.1,0z"/>
		</g>
		<path class="st3" d="M7.2,5c0-2.7,2.2-5,5-5l0,0H5.1v14.8h7.1V9.9C9.4,9.9,7.2,7.7,7.2,5z"/>
	</g>
</g>
</svg>
