<?xml version="1.0" encoding="utf-8"?>
<!-- Generator: Adobe Illustrator 25.2.3, SVG Export Plug-In . SVG Version: 6.00 Build 0)  -->
<svg version="1.1" id="Layer_1" opacity="0.3" xmlns="http://www.w3.org/2000/svg" xmlns:xlink="http://www.w3.org/1999/xlink"
	 x="0px" y="0px" viewBox="0 0 19.8 20" style="enable-background:new 0 0 19.8 20;" xml:space="preserve">
<style type="text/css">
	.st0{fill-rule:evenodd;clip-rule:evenodd;fill:#F2C60F;}
	.st1{fill-rule:evenodd;clip-rule:evenodd;fill:#F24314;}
	.st2{fill-rule:evenodd;clip-rule:evenodd;fill:#0089C6;}
</style>
<g>
	<g>
		<path class="st0" d="M2.7,5v15l8.6,0v-4.1l-4.6,0V5H2.7z"/>
		<g>
			<path class="st1" d="M14.8,0L14.8,0l0,9.9h0c2.7,0,5-2.2,5-5C19.8,2.2,17.6,0,14.8,0z"/>
			<path class="st1" d="M14.8,0L14.8,0l0,9.9h0c2.7,0,5-2.2,5-5C19.8,2.2,17.6,0,14.8,0z"/>
			<path class="st1" d="M14.8,0L14.8,0l0,9.9h0c2.7,0,5-2.2,5-5C19.8,2.2,17.6,0,14.8,0z"/>
		</g>
		<path class="st2" d="M9.9,5c0-2.7,2.2-5,5-5l0,0H7.8v14.8h7.1V9.9C12.1,9.9,9.9,7.7,9.9,5z"/>
	</g>
</g>
</svg>
