<?xml version="1.0" encoding="UTF-8" standalone="no"?>
<!DOCTYPE svg PUBLIC "-//W3C//DTD SVG 1.1//EN" "http://www.w3.org/Graphics/SVG/1.1/DTD/svg11.dtd">
<svg width="100%" height="100%" viewBox="0 0 18 20" version="1.1" xmlns="http://www.w3.org/2000/svg" xmlns:xlink="http://www.w3.org/1999/xlink" xml:space="preserve" xmlns:serif="http://www.serif.com/" style="fill-rule:evenodd;clip-rule:evenodd;stroke-linejoin:round;stroke-miterlimit:2;">
    <g transform="matrix(1,0,0,1,-2.7,-1)">
        <g>
            <g transform="matrix(1,0,0,1,0,1)">
                <path d="M2.7,5L2.7,20L11.3,20L11.3,15.9L6.7,15.9L6.7,5L2.7,5Z" style="fill:rgb(242,198,15);"/>
                <g>
                    <path d="M14.8,0L14.8,9.9C17.5,9.9 19.8,7.7 19.8,4.9C19.8,2.2 17.6,0 14.8,0Z" style="fill:rgb(242,67,20);"/>
                    <path d="M14.8,0L14.8,9.9C17.5,9.9 19.8,7.7 19.8,4.9C19.8,2.2 17.6,0 14.8,0Z" style="fill:rgb(242,67,20);"/>
                    <path d="M14.8,0L14.8,9.9C17.5,9.9 19.8,7.7 19.8,4.9C19.8,2.2 17.6,0 14.8,0Z" style="fill:rgb(242,67,20);"/>
                </g>
                <path id="_-" serif:id=" " d="M9.9,5C9.9,2.3 12,0 14.8,0L7.8,0L7.8,14.8L14.8,14.8L14.8,9.9C12,9.9 9.9,7.7 9.9,5Z" style="fill:rgb(0,137,198);"/>
            </g>
        </g>
    </g>
</svg>
