<?xml version="1.0" encoding="UTF-8"?><svg id="Layer_2" xmlns="http://www.w3.org/2000/svg" viewBox="0 0 34.49706 10.84372"><defs><style>.cls-1{fill:#fff;}.cls-2{isolation:isolate;}</style></defs><g id="Layer_10"><g class="cls-2"><g class="cls-2"><path class="cls-1" d="m12.65722,7.65545v-1.25c.22656.19043.47266.33301.73828.42773s.5332.14258.80469.14258c.1582,0,.29688-.01465.41602-.04297.11816-.02832.2168-.06836.29688-.11914.0791-.05078.13867-.11035.17773-.17969s.05859-.14355.05859-.22461c0-.10938-.03125-.20703-.09375-.29297s-.14844-.16504-.25586-.23828c-.1084-.07324-.23633-.14355-.38477-.21094s-.30859-.13672-.48047-.20703c-.4375-.18262-.76367-.40527-.97852-.66797s-.32227-.58105-.32227-.95312c0-.29199.05859-.54199.17578-.75195s.27637-.38184.47852-.51758c.20117-.13574.43555-.23535.70117-.29883s.54688-.0957.84375-.0957c.29102,0,.5498.01758.77539.05273.22461.03516.43262.08887.62305.16211v1.16797c-.09375-.06543-.19629-.12207-.30664-.17188-.11133-.0498-.22461-.09082-.3418-.12305s-.23438-.05664-.34961-.07227c-.11621-.01562-.22656-.02344-.33008-.02344-.14355,0-.27344.01367-.39062.04102s-.2168.06543-.29688.11523c-.08105.0498-.14355.1084-.1875.17773-.04492.06934-.06641.14648-.06641.23242,0,.09375.02441.17773.07422.25195.04883.07422.11914.14453.21094.21094.09082.06641.20117.13184.33203.19531.12988.06348.27734.12988.44141.19727.22363.09375.4248.19336.60352.29883.17773.10547.33105.22461.45898.35742.12695.13281.22461.28418.29297.45508.06738.1709.10156.36914.10156.5957,0,.3125-.05957.5752-.17773.78711-.11914.21191-.2793.38379-.48242.51562s-.43945.22559-.70898.2832-.55469.08594-.85352.08594c-.30762,0-.59961-.02637-.87695-.07812s-.51758-.12988-.7207-.23438Z"/><path class="cls-1" d="m20.21288,7.72577c-.27832.16113-.68066.24219-1.20703.24219-.61426,0-1.11133-.18652-1.49219-.55859-.37988-.37207-.57031-.85254-.57031-1.44141,0-.67969.2041-1.21582.61133-1.60742.4082-.3916.95312-.58789,1.63477-.58789.47168,0,.8125.0625,1.02344.1875v1.04688c-.25781-.19238-.54492-.28906-.86328-.28906-.35352,0-.63477.10352-.8418.31055s-.31055.49316-.31055.85742c0,.35449.09961.63184.29688.83398.19824.20215.4707.30273.81641.30273.30762,0,.6084-.09668.90234-.28906v.99219Z"/><path class="cls-1" d="m21.55078,3.23749c-.20801,0-.37891-.06152-.51172-.18555s-.19922-.27539-.19922-.45508c0-.18457.06641-.33594.19922-.45312s.30371-.17578.51172-.17578c.21094,0,.38281.05859.51367.17578.13184.11719.19727.26855.19727.45312,0,.1875-.06543.34082-.19727.46094-.13086.12012-.30273.17969-.51367.17969Zm.60938,4.63281h-1.23438V3.8703h1.23438v4Z"/><path class="cls-1" d="m26.69726,6.22186h-2.60938c.04102.58105.40723.87109,1.09766.87109.43945,0,.82617-.10449,1.16016-.3125v.89062c-.37012.19824-.85059.29688-1.44141.29688-.64648,0-1.14746-.17871-1.50391-.53711-.35742-.3584-.53516-.85742-.53516-1.49805,0-.66406.19238-1.19043.57812-1.57812.38477-.3877.85938-.58203,1.42188-.58203.58301,0,1.03418.17285,1.35352.51953.31836.34668.47852.81641.47852,1.41016v.51953Zm-1.14453-.75781c0-.57324-.23242-.85938-.69531-.85938-.19824,0-.36914.08203-.51367.24609s-.23242.36816-.26367.61328h1.47266Z"/><path class="cls-1" d="m31.19921,7.8703h-1.23047v-2.22266c0-.62012-.22168-.92969-.66406-.92969-.21387,0-.38965.08203-.52734.24609-.13867.16406-.20703.37207-.20703.625v2.28125h-1.23438V3.8703h1.23438v.63281h.01562c.29395-.4873.72266-.73047,1.28516-.73047.88477,0,1.32812.5498,1.32812,1.64844v2.44922Z"/><path class="cls-1" d="m34.49706,7.82342c-.18164.09668-.45703.14453-.82422.14453-.86914,0-1.30469-.45215-1.30469-1.35547v-1.83203h-.64844v-.91016h.64844v-.86328l1.23047-.35156v1.21484h.89844v.91016h-.89844v1.61719c0,.41699.16602.625.49609.625.13086,0,.26465-.03809.40234-.11328v.91406Z"/></g></g><path class="cls-1" d="m4.28773.11504C2.2129.53535.53461,2.2151.11469,4.29001c-.2315,1.14389-.10215,2.24148.29428,3.20071.06973.16871.30744.18563.40438.03094.46928-.74886,1.58864-2.22353,3.81311-3.67659,2.19691-1.43506,4.10258-1.43032,5.00718-1.31221.15832.02067.27101-.16575.17715-.29491C8.62294.60331,6.54425-.34208,4.28773.11504Zm-1.55779,4.21875c-.31789.22709-.50081.42173-.71993.61824-.04483.04022-.09787.00733-.11974-.02932-.23909-.40085-.52728-1.90062-.26847-2.07713.18273-.12463.34812.23973.65684.68556.17989.25976.36926.52577.47105.67409.02385.03478.02044.09983-.01975.12855h0Z"/><path class="cls-1" d="m10.60259,4.73418c-.65926-.14985-2.53626-.39575-4.7612.84591-1.96521,1.0967-3.38015,2.56585-4.0289,3.31651-.15223.17614-.13917.44559.03573.59925.95411.83824,2.20377,1.34787,3.57365,1.34787,3.15003,0,5.68736-2.59944,5.41668-5.80616-.00758-.15258-.10435-.28106-.23596-.30338Zm-5.53226,4.80719c-.14956.1053-.54554-.21204-.85405-.57814-.21834-.25912-.39974-.5425-.47955-.70102-.0202-.04013-.01949-.10366.01159-.1361.13607-.14204.50703-.45741.68493-.52246.05548-.02028.12434.00985.13836.05251.07295.22207.16494.57739.27917.92637.15904.4859.37841.84698.21954.95884h.00001Z"/></g></svg>