<?xml version="1.0" encoding="utf-8"?>
<!-- Generator: Adobe Illustrator 25.4.1, SVG Export Plug-In . SVG Version: 6.00 Build 0)  -->
<svg version="1.1" id="Layer_1" xmlns="http://www.w3.org/2000/svg" xmlns:xlink="http://www.w3.org/1999/xlink" x="0px" y="0px"
	 viewBox="0 0 101.17031 13.84102" style="enable-background:new 0 0 101.17031 13.84102;" xml:space="preserve">
<style type="text/css">
	.st0{enable-background:new    ;}
	.st1{fill:#55B700;}
	.st2{fill:#FFFFFF;}
</style>
<g id="type_00000082331526318457773200000011651929829828389255_">
	<g class="st0">
		<path d="M18.73281,11.03438l-0.16064-4.93799l-0.06006-1.97168l-0.4209,1.33691l-0.96924,2.97314h-1.0293l-0.87549-2.97314
			l-0.36768-1.33691l-0.04639,1.93164l-0.14746,4.97803h-1.39648l0.42773-8.73389h1.85791L16.31338,4.779l0.36768,1.39746
			l0.36719-1.31641l0.80908-2.55957h1.89111l0.43457,8.73389H18.73281z"/>
		<path d="M25.496,10.29219c-0.23584,0.58887-0.48242,1.10449-0.73828,1.54785c-0.25635,0.44336-0.53809,0.8125-0.8457,1.10938
			c-0.30713,0.2959-0.64941,0.51855-1.02588,0.66797s-0.79834,0.22363-1.26611,0.22363c-0.11133,0-0.23291-0.00586-0.36426-0.0166
			s-0.26611-0.02734-0.4043-0.0498v-1.38379c0.05322,0.00879,0.11475,0.01953,0.18359,0.03027
			c0.06934,0.01074,0.1416,0.02051,0.21729,0.02637c0.07568,0.00684,0.15234,0.0127,0.23047,0.01758
			c0.07812,0.00391,0.15039,0.00586,0.21729,0.00586c0.18701,0,0.36084-0.03516,0.52148-0.10645
			c0.16016-0.07129,0.30811-0.1709,0.44434-0.29785c0.13574-0.12695,0.25928-0.27832,0.37061-0.4541
			s0.20947-0.36914,0.29443-0.57812L20.6376,4.24482h1.81787l1.41016,3.84912l0.4209,1.24316l0.41406-1.18945l1.42383-3.90283
			h1.75098L25.496,10.29219z"/>
	</g>
	<g class="st0">
		<path class="st1" d="M31.9252,7.33955V5.98213h3.10742v4.65771c-0.40088,0.1875-0.81982,0.3252-1.25635,0.41504
			c-0.43652,0.08887-0.91113,0.13281-1.42334,0.13281c-0.60596,0-1.15088-0.09277-1.63428-0.28027s-0.89453-0.46582-1.23291-0.83496
			c-0.33838-0.37012-0.59814-0.8291-0.77832-1.37695c-0.18066-0.54785-0.271-1.18311-0.271-1.90479
			c0-0.72559,0.09473-1.37598,0.28418-1.95117c0.18945-0.57422,0.46533-1.06152,0.82861-1.45996s0.80859-0.70312,1.33691-0.91211
			c0.52783-0.20996,1.13037-0.31445,1.80762-0.31445c0.40088,0,0.79199,0.03418,1.17285,0.10352s0.76074,0.16113,1.13965,0.27734
			v1.62402c-0.33008-0.15625-0.69434-0.28418-1.09277-0.38379c-0.39893-0.10059-0.80127-0.15039-1.20654-0.15039
			c-0.40967,0-0.77197,0.07129-1.08594,0.21387s-0.57715,0.34473-0.78857,0.60742c-0.21143,0.26367-0.37207,0.58594-0.48096,0.96973
			c-0.10938,0.38281-0.16406,0.81543-0.16406,1.2959c0,0.46387,0.04248,0.88184,0.12695,1.25244
			c0.08496,0.37207,0.22168,0.68848,0.41113,0.94922s0.43311,0.45996,0.73193,0.59863
			c0.29834,0.1377,0.66162,0.20703,1.08935,0.20703c0.10254,0,0.19141-0.00391,0.26709-0.00977
			c0.07568-0.00684,0.14697-0.01758,0.21387-0.03027c0.06689-0.01367,0.13037-0.0293,0.19043-0.04688
			c0.06055-0.01758,0.12402-0.03809,0.19043-0.06055V7.33955H31.9252z"/>
		<path class="st1" d="M40.74209,6.88447c0.00879-0.25391-0.00342-0.46973-0.03662-0.64844
			c-0.03369-0.17773-0.08691-0.3252-0.16064-0.44043c-0.07373-0.11621-0.16357-0.20117-0.27051-0.25391
			c-0.10693-0.05371-0.22949-0.08008-0.36768-0.08008c-0.24072,0-0.48926,0.09863-0.74512,0.29688
			c-0.25635,0.19824-0.53809,0.52441-0.8457,0.97949v4.29639h-1.67041V4.24482h1.47656l0.06055,0.98926
			c0.11133-0.17383,0.2373-0.33008,0.37744-0.46777c0.14014-0.13867,0.29639-0.25781,0.46777-0.35742
			c0.17139-0.10059,0.36182-0.17773,0.57129-0.23047c0.20947-0.05371,0.43896-0.08105,0.68848-0.08105
			c0.34326,0,0.64697,0.05957,0.91211,0.17773s0.48828,0.29297,0.66846,0.52441c0.18066,0.23145,0.31396,0.52246,0.40088,0.87207
			s0.12354,0.75391,0.11035,1.21289H40.74209z"/>
		<path class="st1" d="M49.67373,7.11885c0,0.11133-0.00293,0.25586-0.00977,0.43457
			c-0.00684,0.17773-0.0166,0.34424-0.03027,0.50049h-4.46436c0,0.29883,0.0459,0.56152,0.13721,0.78809
			c0.09131,0.22754,0.2207,0.41797,0.3877,0.57129c0.16699,0.1543,0.36768,0.27148,0.60156,0.35156s0.49316,0.12012,0.77832,0.12012
			c0.32959,0,0.68262-0.02539,1.05957-0.07715c0.37646-0.05078,0.76709-0.13477,1.17285-0.25v1.2959
			c-0.17383,0.04883-0.36328,0.09375-0.56836,0.13379c-0.20459,0.04004-0.41406,0.07617-0.62793,0.10742
			c-0.21387,0.03027-0.43018,0.05371-0.64844,0.06934s-0.43018,0.02344-0.63477,0.02344c-0.51709,0-0.98047-0.07324-1.39014-0.21973
			c-0.41016-0.14746-0.75732-0.36426-1.04248-0.65234c-0.28516-0.28711-0.50342-0.64258-0.65527-1.06543
			c-0.15137-0.42383-0.22705-0.91309-0.22705-1.47021c0-0.55176,0.07568-1.05469,0.22705-1.50684
			c0.15186-0.45215,0.36572-0.83984,0.6416-1.16309c0.27637-0.32227,0.61182-0.57227,1.00586-0.74805
			c0.39453-0.17578,0.83447-0.26465,1.31982-0.26465c0.48145,0,0.90674,0.0752,1.27686,0.22461
			c0.36963,0.14941,0.6792,0.35742,0.92871,0.625c0.24951,0.2666,0.43896,0.58594,0.56836,0.95508
			C49.60928,6.27217,49.67373,6.67744,49.67373,7.11885z M48.0165,6.88447c0.00439-0.26758-0.02881-0.5-0.1001-0.69824
			s-0.16846-0.3623-0.29102-0.49121s-0.26514-0.22461-0.42773-0.28711s-0.3374-0.09375-0.52441-0.09375
			c-0.41016,0-0.74609,0.13672-1.00928,0.41113c-0.2627,0.27344-0.41895,0.66016-0.46777,1.15918H48.0165z"/>
		<path class="st1" d="M57.19912,7.11885c0,0.11133-0.00293,0.25586-0.00977,0.43457
			c-0.00684,0.17773-0.0166,0.34424-0.03027,0.50049h-4.46436c0,0.29883,0.0459,0.56152,0.13721,0.78809
			c0.09131,0.22754,0.2207,0.41797,0.3877,0.57129c0.16699,0.1543,0.36768,0.27148,0.60156,0.35156s0.49316,0.12012,0.77832,0.12012
			c0.32959,0,0.68262-0.02539,1.05957-0.07715c0.37646-0.05078,0.76709-0.13477,1.17285-0.25v1.2959
			c-0.17383,0.04883-0.36328,0.09375-0.56836,0.13379c-0.20459,0.04004-0.41406,0.07617-0.62793,0.10742
			c-0.21387,0.03027-0.43018,0.05371-0.64844,0.06934s-0.43018,0.02344-0.63477,0.02344c-0.51709,0-0.98047-0.07324-1.39014-0.21973
			c-0.41016-0.14746-0.75732-0.36426-1.04248-0.65234c-0.28516-0.28711-0.50342-0.64258-0.65527-1.06543
			c-0.15137-0.42383-0.22705-0.91309-0.22705-1.47021c0-0.55176,0.07568-1.05469,0.22705-1.50684
			c0.15186-0.45215,0.36572-0.83984,0.6416-1.16309c0.27637-0.32227,0.61182-0.57227,1.00586-0.74805
			c0.39453-0.17578,0.83447-0.26465,1.31982-0.26465c0.48145,0,0.90674,0.0752,1.27686,0.22461
			c0.36963,0.14941,0.6792,0.35742,0.92871,0.625c0.24951,0.2666,0.43896,0.58594,0.56836,0.95508
			C57.13467,6.27217,57.19912,6.67744,57.19912,7.11885z M55.54189,6.88447c0.00439-0.26758-0.02881-0.5-0.1001-0.69824
			s-0.16846-0.3623-0.29102-0.49121s-0.26514-0.22461-0.42773-0.28711s-0.3374-0.09375-0.52441-0.09375
			c-0.41016,0-0.74609,0.13672-1.00928,0.41113c-0.2627,0.27344-0.41895,0.66016-0.46777,1.15918H55.54189z"/>
		<path class="st1" d="M62.85976,11.03438V6.61104c0-0.74414-0.27637-1.11621-0.82861-1.11621
			c-0.27637,0-0.54053,0.11133-0.79199,0.33398c-0.25195,0.22266-0.51807,0.52539-0.79883,0.90918v4.29639h-1.63086V4.24482h1.41016
			l0.04053,1.00293c0.1377-0.17383,0.28174-0.33203,0.43066-0.47461c0.14941-0.14258,0.31104-0.26465,0.48486-0.36426
			c0.17383-0.10059,0.36084-0.17773,0.56104-0.23047c0.20068-0.05371,0.42578-0.08105,0.67529-0.08105
			c0.34766,0,0.65039,0.05762,0.90869,0.1709s0.47461,0.27441,0.64844,0.48145s0.30469,0.45605,0.39062,0.74805
			c0.08691,0.29199,0.13086,0.61816,0.13086,0.97949v4.55713H62.85976z"/>
	</g>
	<g class="st0">
		<path d="M72.23379,8.39473c0,0.47656-0.08789,0.89062-0.26367,1.24316c-0.17578,0.35156-0.42285,0.64258-0.73828,0.87207
			c-0.31641,0.22949-0.69336,0.39941-1.12988,0.51074s-0.91309,0.16699-1.42969,0.16699c-0.45898,0-0.90234-0.02637-1.33008-0.08008
			c-0.42773-0.05273-0.85156-0.14258-1.27051-0.2666V9.21699c0.20508,0.07129,0.41895,0.1377,0.6416,0.2002
			s0.44727,0.11719,0.67188,0.16406c0.22461,0.0459,0.44922,0.08301,0.67188,0.10938
			c0.22266,0.02734,0.43848,0.04102,0.64844,0.04102c0.31152,0,0.57715-0.02734,0.79492-0.08105
			c0.21875-0.05273,0.39648-0.12695,0.53516-0.21973c0.1377-0.09375,0.23828-0.20508,0.30078-0.33496
			c0.06152-0.12891,0.09277-0.27148,0.09277-0.42773c0-0.21387-0.06055-0.39258-0.18359-0.53809
			c-0.12207-0.14453-0.28418-0.27246-0.48438-0.3833c-0.2002-0.11133-0.42871-0.21191-0.68457-0.30078
			c-0.25684-0.08887-0.51758-0.18457-0.78223-0.28711c-0.26562-0.10254-0.52637-0.21875-0.78223-0.34766
			s-0.48438-0.29004-0.68457-0.48145c-0.20117-0.19141-0.3623-0.41992-0.48438-0.68457
			c-0.12305-0.26562-0.18457-0.58496-0.18457-0.95898c0-0.34375,0.0625-0.66895,0.1875-0.97559
			c0.125-0.30762,0.32031-0.57617,0.58789-0.80566s0.61035-0.41211,1.0293-0.54785s0.9248-0.2041,1.51758-0.2041
			c0.17383,0,0.35449,0.00781,0.54395,0.02344s0.37695,0.03613,0.56152,0.06055s0.36328,0.05273,0.53516,0.08594
			c0.1709,0.03418,0.32812,0.06836,0.4707,0.10449v1.50293c-0.14258-0.05273-0.29883-0.10254-0.46777-0.14648
			C70.95547,3.73896,70.78066,3.6999,70.6,3.6667s-0.3623-0.05859-0.54492-0.07715
			c-0.18262-0.01758-0.35645-0.02637-0.52148-0.02637c-0.28906,0-0.53418,0.02344-0.73438,0.07031
			c-0.20117,0.04688-0.36621,0.11133-0.49512,0.19336c-0.12891,0.08301-0.22266,0.18359-0.28027,0.30469
			c-0.05859,0.12012-0.08691,0.25391-0.08691,0.40039c0,0.18262,0.06055,0.33984,0.18359,0.47168
			c0.12207,0.13086,0.28516,0.24902,0.48828,0.35352c0.20215,0.10547,0.43164,0.20312,0.6875,0.29492
			c0.25684,0.09082,0.51953,0.18945,0.78906,0.29395s0.53223,0.22363,0.78809,0.35742
			c0.25684,0.13379,0.48633,0.2959,0.68848,0.4873c0.20312,0.19238,0.36523,0.41797,0.48828,0.67871
			C72.17226,7.73018,72.23379,8.03828,72.23379,8.39473z"/>
		<path d="M79.80117,7.51924c0,0.62354-0.08789,1.1626-0.26367,1.6167c-0.17578,0.45508-0.4209,0.83203-0.73535,1.13281
			c-0.31348,0.30078-0.68457,0.52441-1.1123,0.66895s-0.89355,0.2168-1.39648,0.2168c-0.16992,0-0.33887-0.01074-0.50781-0.0332
			c-0.16992-0.02246-0.32324-0.05176-0.46191-0.08691v2.65332h-1.63086V4.24482h1.41016l0.04102,1.00293
			c0.1377-0.17383,0.28125-0.33203,0.43066-0.47461s0.31055-0.26465,0.48438-0.36426
			c0.17383-0.10059,0.36133-0.17773,0.56152-0.23047c0.2002-0.05371,0.42578-0.08105,0.6748-0.08105
			c0.40137,0,0.75781,0.08105,1.06934,0.24121s0.57324,0.38867,0.78516,0.68457c0.21191,0.29688,0.37305,0.65527,0.48438,1.07617
			S79.80117,6.99385,79.80117,7.51924z M78.09121,7.58662c0-0.37402-0.02734-0.69336-0.08105-0.95605
			c-0.05273-0.2627-0.12988-0.47852-0.23047-0.64844c-0.09961-0.16895-0.22266-0.29297-0.36719-0.37109
			c-0.14453-0.07715-0.31055-0.11621-0.49805-0.11621c-0.27637,0-0.54004,0.11133-0.79199,0.33398s-0.51758,0.52539-0.79883,0.90918
			V9.7043c0.12988,0.04883,0.28906,0.08887,0.47852,0.12012c0.18848,0.03125,0.38184,0.04688,0.57812,0.04688
			c0.25781,0,0.49316-0.05371,0.70508-0.16016c0.21094-0.10742,0.3916-0.25879,0.54102-0.4541
			c0.14941-0.19629,0.26367-0.43555,0.34375-0.71875S78.09121,7.9377,78.09121,7.58662z"/>
		<path d="M85.29726,11.03438l-0.04004-0.88867c-0.14258,0.15137-0.29199,0.29102-0.44727,0.41797
			c-0.15625,0.12695-0.32812,0.23633-0.51465,0.33008c-0.1875,0.09375-0.3916,0.16602-0.61133,0.21777
			c-0.2207,0.05078-0.46289,0.07617-0.72559,0.07617c-0.34766,0-0.65234-0.05078-0.91504-0.15332
			c-0.26367-0.10254-0.48438-0.24512-0.66211-0.42773c-0.17871-0.18262-0.31348-0.40332-0.4043-0.66113
			c-0.0918-0.25879-0.13672-0.54395-0.13672-0.85547c0-0.32129,0.06738-0.61719,0.20312-0.88965
			c0.13672-0.27148,0.34375-0.50439,0.62207-0.70068s0.62598-0.34961,1.04199-0.46094
			c0.41699-0.11133,0.90625-0.16797,1.46777-0.16797h0.88867V6.46357c0-0.17383-0.02441-0.33105-0.07324-0.4707
			c-0.0498-0.14062-0.12891-0.25977-0.2373-0.3584c-0.10938-0.09766-0.25098-0.17285-0.4248-0.22656s-0.3877-0.08008-0.6416-0.08008
			c-0.40137,0-0.79688,0.04492-1.18652,0.13672s-0.76758,0.21973-1.13281,0.38379V4.54561
			c0.3252-0.12891,0.70117-0.23633,1.12598-0.32129c0.42578-0.08398,0.86816-0.12695,1.32715-0.12695
			c0.50293,0,0.93555,0.04883,1.29688,0.14453c0.36035,0.0957,0.6582,0.23926,0.8916,0.43066
			c0.23438,0.19141,0.40625,0.43066,0.51855,0.71875c0.11035,0.28711,0.16699,0.62207,0.16699,1.00586v4.63721H85.29726z
			 M85.06387,8.0334h-0.99609c-0.27637,0-0.50977,0.02734-0.70117,0.08008c-0.19238,0.05371-0.34766,0.12695-0.46875,0.2207
			c-0.12012,0.09375-0.20801,0.20215-0.26367,0.32422c-0.05566,0.12305-0.08301,0.25293-0.08301,0.39062
			c0,0.27637,0.08887,0.4873,0.2666,0.63184c0.17871,0.14551,0.42188,0.21777,0.72852,0.21777
			c0.22754,0,0.46387-0.08301,0.70898-0.24805c0.24512-0.16406,0.51465-0.40039,0.80859-0.70801V8.0334z"/>
		<path d="M93.6625,10.77363c-0.32129,0.12891-0.65332,0.22559-0.99609,0.28711c-0.34277,0.0625-0.70117,0.09375-1.07617,0.09375
			c-0.53906,0-1.02246-0.07324-1.4502-0.2207c-0.42773-0.14648-0.79102-0.36523-1.08887-0.6543
			c-0.29883-0.29004-0.52734-0.64844-0.68555-1.07617s-0.2373-0.92285-0.2373-1.48291c0-0.54395,0.08594-1.03613,0.25781-1.47754
			c0.1709-0.44043,0.41309-0.81738,0.72461-1.12891c0.3125-0.3125,0.6875-0.55273,1.12695-0.72168
			c0.43848-0.16992,0.92773-0.25391,1.4668-0.25391c0.44043,0,0.81152,0.02246,1.1123,0.06934s0.57129,0.10645,0.8125,0.17773
			v1.58398c-0.27637-0.13867-0.57617-0.24512-0.89941-0.32129c-0.32324-0.0752-0.62891-0.11328-0.91895-0.11328
			c-0.30273,0-0.57422,0.05078-0.81543,0.15332c-0.24023,0.10254-0.44336,0.24512-0.60742,0.42773
			c-0.16504,0.18262-0.29102,0.4043-0.37793,0.66504S89.8793,7.32783,89.8793,7.64033c0,0.32471,0.04688,0.61572,0.14062,0.87451
			s0.22656,0.47754,0.39746,0.6582c0.17188,0.18066,0.37793,0.31836,0.61816,0.41406
			c0.24121,0.09668,0.50781,0.14453,0.80273,0.14453c0.14258,0,0.29297-0.01074,0.45117-0.03027
			c0.15723-0.02051,0.31543-0.04883,0.47363-0.08691s0.31445-0.08105,0.46777-0.13086
			c0.1543-0.04883,0.29785-0.10254,0.43164-0.16016V10.77363z"/>
		<path d="M101.17031,7.11885c0,0.11133-0.00293,0.25586-0.00977,0.43457c-0.00684,0.17773-0.0166,0.34424-0.03027,0.50049h-4.46484
			c0,0.29883,0.0459,0.56152,0.1377,0.78809c0.09082,0.22754,0.2207,0.41797,0.3877,0.57129
			c0.16699,0.1543,0.36719,0.27148,0.60156,0.35156c0.2334,0.08008,0.49316,0.12012,0.77832,0.12012
			c0.3291,0,0.68262-0.02539,1.05957-0.07715c0.37598-0.05078,0.7666-0.13477,1.17285-0.25v1.2959
			c-0.17383,0.04883-0.36328,0.09375-0.56836,0.13379s-0.41406,0.07617-0.62793,0.10742
			c-0.21387,0.03027-0.43066,0.05371-0.64844,0.06934c-0.21875,0.01562-0.43066,0.02344-0.63477,0.02344
			c-0.51758,0-0.98047-0.07324-1.39062-0.21973c-0.41016-0.14746-0.75684-0.36426-1.04199-0.65234
			c-0.28516-0.28711-0.50391-0.64258-0.65527-1.06543c-0.15137-0.42383-0.22754-0.91309-0.22754-1.47021
			c0-0.55176,0.07617-1.05469,0.22754-1.50684s0.36523-0.83984,0.6416-1.16309c0.27637-0.32227,0.61133-0.57227,1.00586-0.74805
			s0.83398-0.26465,1.31934-0.26465c0.48145,0,0.90723,0.0752,1.27734,0.22461c0.36914,0.14941,0.67871,0.35742,0.92871,0.625
			c0.24902,0.2666,0.43848,0.58594,0.56836,0.95508C101.10586,6.27217,101.17031,6.67744,101.17031,7.11885z M99.51308,6.88447
			c0.00391-0.26758-0.0293-0.5-0.10059-0.69824s-0.16797-0.3623-0.29102-0.49121c-0.12207-0.12891-0.26465-0.22461-0.42773-0.28711
			c-0.16211-0.0625-0.33691-0.09375-0.52441-0.09375c-0.41016,0-0.74609,0.13672-1.00879,0.41113
			c-0.2627,0.27344-0.41895,0.66016-0.46777,1.15918H99.51308z"/>
	</g>
</g>
<g id="Layer_2_00000042014197701904575170000018063785360277344929_">
	<path class="st1" d="M0,0h7.3c2.2,0,3.9,1.8,3.9,3.9v9.3H3.3C1.5,13.2,0,11.7,0,9.9L0,0z"/>
	<path class="st2" d="M0.8,0.8c0,0,0.7,4,2.9,6.5s6.7,5,6.7,5S6.8,9.5,4.6,6.8C2.6,4.4,0.8,0.8,0.8,0.8z"/>
</g>
</svg>
