<?xml version="1.0" encoding="utf-8"?>
<!-- Generator: Adobe Illustrator 27.8.1, SVG Export Plug-In . SVG Version: 6.00 Build 0)  -->
<svg version="1.1" id="Layer_2_00000090267292414235896810000003505719058956225164_"
	 xmlns="http://www.w3.org/2000/svg" xmlns:xlink="http://www.w3.org/1999/xlink" x="0px" y="0px" viewBox="0 0 122.8 13.8"
	 style="enable-background:new 0 0 122.8 13.8;" xml:space="preserve">
<style type="text/css">
	.st0{enable-background:new    ;}
	.st1{fill:#FFFFFF;}
	.st2{fill:#55B700;}
</style>
<g id="Layer_1">
	<g id="type_x5F_outlines">
		<g class="st0">
			<path class="st1" d="M18.3,3.7V11h-1.7V3.7h-2.4V2.3h6.5v1.4H18.3z"/>
			<path class="st1" d="M25.7,11V6.6c0-0.7-0.3-1.1-0.8-1.1c-0.3,0-0.5,0.1-0.8,0.3c-0.3,0.2-0.5,0.5-0.8,0.9V11h-1.6V1.6h1.6v2.3
				l-0.1,1.2c0.1-0.2,0.3-0.3,0.4-0.4c0.1-0.1,0.3-0.2,0.5-0.3c0.2-0.1,0.3-0.2,0.5-0.2c0.2,0,0.4-0.1,0.6-0.1
				c0.3,0,0.7,0.1,0.9,0.2s0.5,0.3,0.6,0.5s0.3,0.5,0.4,0.7c0.1,0.3,0.1,0.6,0.1,1V11H25.7z"/>
			<path class="st1" d="M34.5,7.1c0,0.1,0,0.3,0,0.4c0,0.2,0,0.3,0,0.5H30c0,0.3,0,0.6,0.1,0.8c0.1,0.2,0.2,0.4,0.4,0.6
				c0.2,0.2,0.4,0.3,0.6,0.4s0.5,0.1,0.8,0.1c0.3,0,0.7,0,1.1-0.1c0.4-0.1,0.8-0.1,1.2-0.2v1.3c-0.2,0-0.4,0.1-0.6,0.1
				c-0.2,0-0.4,0.1-0.6,0.1c-0.2,0-0.4,0.1-0.6,0.1s-0.4,0-0.6,0c-0.5,0-1-0.1-1.4-0.2c-0.4-0.1-0.8-0.4-1-0.7
				C29,10,28.8,9.7,28.6,9.3c-0.2-0.4-0.2-0.9-0.2-1.5c0-0.6,0.1-1.1,0.2-1.5c0.2-0.5,0.4-0.8,0.6-1.2c0.3-0.3,0.6-0.6,1-0.7
				c0.4-0.2,0.8-0.3,1.3-0.3c0.5,0,0.9,0.1,1.3,0.2c0.4,0.1,0.7,0.4,0.9,0.6c0.2,0.3,0.4,0.6,0.6,1C34.5,6.3,34.5,6.7,34.5,7.1z
				 M32.9,6.9c0-0.3,0-0.5-0.1-0.7s-0.2-0.4-0.3-0.5s-0.3-0.2-0.4-0.3s-0.3-0.1-0.5-0.1c-0.4,0-0.7,0.1-1,0.4
				c-0.3,0.3-0.4,0.7-0.5,1.2C30.1,6.9,32.9,6.9,32.9,6.9z"/>
		</g>
		<g class="st0">
			<path class="st2" d="M40,7.3V6h3.1v4.7c-0.4,0.2-0.8,0.3-1.3,0.4c-0.4,0.1-0.9,0.1-1.4,0.1c-0.6,0-1.2-0.1-1.6-0.3
				s-0.9-0.5-1.2-0.8c-0.3-0.4-0.6-0.8-0.8-1.4c-0.2-0.5-0.3-1.2-0.3-1.9c0-0.7,0.1-1.4,0.3-2c0.2-0.6,0.5-1.1,0.8-1.5
				s0.8-0.7,1.3-0.9c0.5-0.2,1.1-0.3,1.8-0.3c0.4,0,0.8,0,1.2,0.1s0.8,0.2,1.1,0.3v1.6C42.8,4,42.4,3.9,42,3.8
				c-0.4-0.1-0.8-0.2-1.2-0.2c-0.4,0-0.8,0.1-1.1,0.2S39.2,4.2,39,4.4c-0.2,0.3-0.4,0.6-0.5,1c-0.1,0.4-0.2,0.8-0.2,1.3
				c0,0.5,0,0.9,0.1,1.3c0.1,0.4,0.2,0.7,0.4,0.9s0.4,0.5,0.7,0.6c0.3,0.1,0.7,0.2,1.1,0.2c0.1,0,0.2,0,0.3,0c0.1,0,0.1,0,0.2,0
				c0.1,0,0.1,0,0.2,0c0.1,0,0.1,0,0.2-0.1V7.3H40z"/>
			<path class="st2" d="M48.5,6.9c0-0.3,0-0.5,0-0.6c0-0.2-0.1-0.3-0.2-0.4c-0.1-0.1-0.2-0.2-0.3-0.3c-0.1-0.1-0.2-0.1-0.4-0.1
				c-0.2,0-0.5,0.1-0.7,0.3c-0.3,0.2-0.5,0.5-0.8,1V11h-1.7V4.2h1.5l0.1,1c0.1-0.2,0.2-0.3,0.4-0.5c0.1-0.1,0.3-0.3,0.5-0.4
				c0.2-0.1,0.4-0.2,0.6-0.2c0.2-0.1,0.4-0.1,0.7-0.1c0.3,0,0.6,0.1,0.9,0.2s0.5,0.3,0.7,0.5C49.8,5,49.9,5.3,50,5.7
				s0.1,0.8,0.1,1.2H48.5z"/>
			<path class="st2" d="M57.2,7.1c0,0.1,0,0.3,0,0.4c0,0.2,0,0.3,0,0.5h-4.5c0,0.3,0,0.6,0.1,0.8c0.1,0.2,0.2,0.4,0.4,0.6
				c0.2,0.2,0.4,0.3,0.6,0.4s0.5,0.1,0.8,0.1c0.3,0,0.7,0,1.1-0.1c0.4-0.1,0.8-0.1,1.2-0.2v1.3c-0.2,0-0.4,0.1-0.6,0.1
				c-0.2,0-0.4,0.1-0.6,0.1c-0.2,0-0.4,0.1-0.6,0.1s-0.4,0-0.6,0c-0.5,0-1-0.1-1.4-0.2c-0.4-0.1-0.8-0.4-1-0.7
				c-0.3-0.3-0.5-0.6-0.7-1.1C51.1,8.8,51,8.3,51,7.8c0-0.6,0.1-1.1,0.2-1.5c0.2-0.5,0.4-0.8,0.6-1.2c0.3-0.3,0.6-0.6,1-0.7
				c0.4-0.2,0.8-0.3,1.3-0.3c0.5,0,0.9,0.1,1.3,0.2c0.4,0.1,0.7,0.4,0.9,0.6c0.2,0.3,0.4,0.6,0.6,1C57.1,6.3,57.2,6.7,57.2,7.1z
				 M55.5,6.9c0-0.3,0-0.5-0.1-0.7s-0.2-0.4-0.3-0.5s-0.3-0.2-0.4-0.3s-0.3-0.1-0.5-0.1c-0.4,0-0.7,0.1-1,0.4
				c-0.3,0.3-0.4,0.7-0.5,1.2C52.7,6.9,55.5,6.9,55.5,6.9z"/>
			<path class="st2" d="M64.5,7.1c0,0.1,0,0.3,0,0.4c0,0.2,0,0.3,0,0.5H60c0,0.3,0,0.6,0.1,0.8c0.1,0.2,0.2,0.4,0.4,0.6
				c0.2,0.2,0.4,0.3,0.6,0.4s0.5,0.1,0.8,0.1c0.3,0,0.7,0,1.1-0.1c0.4-0.1,0.8-0.1,1.2-0.2v1.3c-0.2,0-0.4,0.1-0.6,0.1
				c-0.2,0-0.4,0.1-0.6,0.1c-0.2,0-0.4,0.1-0.6,0.1s-0.4,0-0.6,0c-0.5,0-1-0.1-1.4-0.2c-0.4-0.1-0.8-0.4-1-0.7
				c-0.3-0.3-0.5-0.6-0.7-1.1c-0.2-0.4-0.2-0.9-0.2-1.5c0-0.6,0.1-1.1,0.2-1.5c0.2-0.5,0.4-0.8,0.6-1.2c0.3-0.3,0.6-0.6,1-0.7
				c0.4-0.2,0.8-0.3,1.3-0.3c0.5,0,0.9,0.1,1.3,0.2c0.4,0.1,0.7,0.4,0.9,0.6c0.2,0.3,0.4,0.6,0.6,1C64.4,6.3,64.5,6.7,64.5,7.1z
				 M62.8,6.9c0-0.3,0-0.5-0.1-0.7s-0.2-0.4-0.3-0.5c-0.1-0.1-0.3-0.2-0.4-0.3s-0.3-0.1-0.5-0.1c-0.4,0-0.7,0.1-1,0.4
				C60.2,6,60,6.4,60,6.9C60,6.9,62.8,6.9,62.8,6.9z"/>
			<path class="st2" d="M69.8,11V6.6c0-0.7-0.3-1.1-0.8-1.1c-0.3,0-0.5,0.1-0.8,0.3s-0.5,0.5-0.8,0.9V11h-1.6V4.2h1.4l0,1
				c0.1-0.2,0.3-0.3,0.4-0.5s0.3-0.3,0.5-0.4c0.2-0.1,0.4-0.2,0.6-0.2c0.2-0.1,0.4-0.1,0.7-0.1c0.3,0,0.7,0.1,0.9,0.2
				c0.3,0.1,0.5,0.3,0.6,0.5s0.3,0.5,0.4,0.7s0.1,0.6,0.1,1V11H69.8z"/>
		</g>
		<g class="st0">
			<path class="st1" d="M79.5,10.7c-0.4,0.2-0.8,0.3-1.1,0.3c-0.4,0.1-0.7,0.1-1.1,0.1c-0.6,0-1.2-0.1-1.7-0.3s-0.9-0.5-1.2-0.8
				s-0.6-0.8-0.8-1.4c-0.2-0.5-0.3-1.2-0.3-1.9c0-0.7,0.1-1.4,0.3-2c0.2-0.6,0.5-1.1,0.8-1.5c0.3-0.4,0.8-0.7,1.3-0.9
				c0.5-0.2,1.1-0.3,1.7-0.3c0.2,0,0.4,0,0.6,0s0.3,0,0.5,0c0.2,0,0.3,0.1,0.5,0.1s0.4,0.1,0.5,0.2v1.6c-0.4-0.2-0.7-0.3-1.1-0.4
				c-0.3-0.1-0.7-0.1-0.9-0.1c-0.4,0-0.8,0.1-1.1,0.2s-0.5,0.4-0.7,0.6s-0.3,0.6-0.4,1c-0.1,0.4-0.1,0.8-0.1,1.2
				c0,0.5,0,0.9,0.1,1.3c0.1,0.4,0.2,0.7,0.4,0.9c0.2,0.3,0.4,0.5,0.7,0.6c0.3,0.1,0.7,0.2,1.1,0.2c0.1,0,0.3,0,0.5,0
				c0.2,0,0.3-0.1,0.5-0.1c0.2,0,0.3-0.1,0.5-0.2c0.2-0.1,0.3-0.1,0.5-0.2C79.5,9.2,79.5,10.7,79.5,10.7z"/>
			<path class="st1" d="M86.6,7.6c0,0.5-0.1,1-0.2,1.5s-0.4,0.8-0.7,1.1s-0.6,0.6-1,0.7c-0.4,0.2-0.9,0.3-1.4,0.3
				c-0.5,0-1-0.1-1.3-0.2c-0.4-0.1-0.7-0.4-1-0.7c-0.3-0.3-0.5-0.7-0.6-1.1c-0.1-0.4-0.2-1-0.2-1.5c0-0.5,0.1-1,0.2-1.5
				c0.2-0.4,0.4-0.8,0.7-1.1c0.3-0.3,0.6-0.6,1.1-0.7s0.9-0.3,1.4-0.3c0.5,0,1,0.1,1.4,0.2s0.7,0.4,1,0.7s0.5,0.7,0.6,1.1
				C86.6,6.5,86.6,7,86.6,7.6z M84.9,7.6c0-0.7-0.1-1.2-0.4-1.6c-0.3-0.4-0.7-0.5-1.2-0.5c-0.3,0-0.5,0.1-0.7,0.2
				c-0.2,0.1-0.4,0.3-0.5,0.5c-0.1,0.2-0.2,0.4-0.3,0.7c-0.1,0.3-0.1,0.5-0.1,0.8c0,0.7,0.1,1.2,0.4,1.6c0.3,0.4,0.7,0.5,1.2,0.5
				c0.3,0,0.5-0.1,0.7-0.2c0.2-0.1,0.4-0.3,0.5-0.5c0.1-0.2,0.2-0.4,0.3-0.7S84.9,7.9,84.9,7.6z"/>
			<path class="st1" d="M93,11V6.4c0-0.2,0-0.3,0-0.4c0-0.1,0-0.2-0.1-0.3c0-0.1-0.1-0.1-0.1-0.2c-0.1,0-0.1-0.1-0.2-0.1
				c-0.1,0-0.3,0.1-0.4,0.3c-0.1,0.2-0.3,0.5-0.5,1V11h-1.4V6.4c0-0.2,0-0.3,0-0.4s0-0.2-0.1-0.3c0-0.1-0.1-0.1-0.1-0.2
				c-0.1,0-0.1-0.1-0.2-0.1c-0.1,0-0.2,0.1-0.4,0.3c-0.1,0.2-0.3,0.5-0.5,1V11h-1.4V4.2h1.2l0,1C89,5,89.1,4.9,89.2,4.7
				s0.2-0.3,0.3-0.4c0.1-0.1,0.2-0.2,0.4-0.2s0.3-0.1,0.4-0.1c0.4,0,0.7,0.1,0.9,0.3s0.3,0.5,0.3,0.8c0.1-0.2,0.2-0.4,0.3-0.5
				s0.2-0.3,0.3-0.4c0.1-0.1,0.2-0.2,0.4-0.2c0.1,0,0.3-0.1,0.4-0.1c0.5,0,0.9,0.2,1.1,0.5c0.2,0.3,0.4,0.9,0.4,1.5V11L93,11L93,11z
				"/>
			<path class="st1" d="M101.6,7.5c0,0.6-0.1,1.2-0.3,1.6c-0.2,0.5-0.4,0.8-0.7,1.1c-0.3,0.3-0.7,0.5-1.1,0.7s-0.9,0.2-1.4,0.2
				c-0.2,0-0.3,0-0.5,0c-0.2,0-0.3-0.1-0.5-0.1v2.7h-1.6V4.2h1.4l0,1c0.1-0.2,0.3-0.3,0.4-0.5s0.3-0.3,0.5-0.4
				c0.2-0.1,0.4-0.2,0.6-0.2c0.2-0.1,0.4-0.1,0.7-0.1c0.4,0,0.8,0.1,1.1,0.2s0.6,0.4,0.8,0.7c0.2,0.3,0.4,0.7,0.5,1.1
				S101.6,7,101.6,7.5z M99.9,7.6c0-0.4,0-0.7-0.1-1c-0.1-0.3-0.1-0.5-0.2-0.6c-0.1-0.2-0.2-0.3-0.4-0.4c-0.1-0.1-0.3-0.1-0.5-0.1
				c-0.3,0-0.5,0.1-0.8,0.3s-0.5,0.5-0.8,0.9v3c0.1,0,0.3,0.1,0.5,0.1c0.2,0,0.4,0,0.6,0c0.3,0,0.5-0.1,0.7-0.2
				c0.2-0.1,0.4-0.3,0.5-0.5c0.1-0.2,0.3-0.4,0.3-0.7S99.9,7.9,99.9,7.6z"/>
			<path class="st1" d="M106.7,11l0-0.9c-0.1,0.2-0.3,0.3-0.4,0.4c-0.2,0.1-0.3,0.2-0.5,0.3c-0.2,0.1-0.4,0.2-0.6,0.2
				c-0.2,0.1-0.5,0.1-0.7,0.1c-0.3,0-0.7-0.1-0.9-0.2c-0.3-0.1-0.5-0.2-0.7-0.4c-0.2-0.2-0.3-0.4-0.4-0.7c-0.1-0.3-0.1-0.5-0.1-0.9
				c0-0.3,0.1-0.6,0.2-0.9c0.1-0.3,0.3-0.5,0.6-0.7s0.6-0.3,1-0.5c0.4-0.1,0.9-0.2,1.5-0.2h0.9V6.5c0-0.2,0-0.3-0.1-0.5
				c0-0.1-0.1-0.3-0.2-0.4c-0.1-0.1-0.3-0.2-0.4-0.2s-0.4-0.1-0.6-0.1c-0.4,0-0.8,0-1.2,0.1s-0.8,0.2-1.1,0.4V4.5
				c0.3-0.1,0.7-0.2,1.1-0.3c0.4-0.1,0.9-0.1,1.3-0.1c0.5,0,0.9,0,1.3,0.1c0.4,0.1,0.7,0.2,0.9,0.4c0.2,0.2,0.4,0.4,0.5,0.7
				c0.1,0.3,0.2,0.6,0.2,1V11H106.7z M106.5,8h-1c-0.3,0-0.5,0-0.7,0.1c-0.2,0.1-0.3,0.1-0.5,0.2c-0.1,0.1-0.2,0.2-0.3,0.3
				C104,8.8,104,8.9,104,9c0,0.3,0.1,0.5,0.3,0.6c0.2,0.1,0.4,0.2,0.7,0.2c0.2,0,0.5-0.1,0.7-0.2c0.2-0.2,0.5-0.4,0.8-0.7V8z"/>
			<path class="st1" d="M113.4,11V6.6c0-0.7-0.3-1.1-0.8-1.1c-0.3,0-0.5,0.1-0.8,0.3c-0.3,0.2-0.5,0.5-0.8,0.9V11h-1.6V4.2h1.4l0,1
				c0.1-0.2,0.3-0.3,0.4-0.5c0.1-0.1,0.3-0.3,0.5-0.4c0.2-0.1,0.4-0.2,0.6-0.2c0.2-0.1,0.4-0.1,0.7-0.1c0.3,0,0.7,0.1,0.9,0.2
				c0.3,0.1,0.5,0.3,0.6,0.5s0.3,0.5,0.4,0.7c0.1,0.3,0.1,0.6,0.1,1V11H113.4z"/>
			<path class="st1" d="M120.4,10.3c-0.2,0.6-0.5,1.1-0.7,1.5c-0.3,0.4-0.5,0.8-0.8,1.1c-0.3,0.3-0.6,0.5-1,0.7
				c-0.4,0.1-0.8,0.2-1.3,0.2c-0.1,0-0.2,0-0.4,0c-0.1,0-0.3,0-0.4,0v-1.4c0.1,0,0.1,0,0.2,0s0.1,0,0.2,0c0.1,0,0.2,0,0.2,0
				c0.1,0,0.2,0,0.2,0c0.2,0,0.4,0,0.5-0.1c0.2-0.1,0.3-0.2,0.4-0.3c0.1-0.1,0.3-0.3,0.4-0.5s0.2-0.4,0.3-0.6l-2.7-6.8h1.8l1.4,3.8
				l0.4,1.2l0.4-1.2l1.4-3.9h1.8L120.4,10.3z"/>
		</g>
	</g>
	<g id="Layer_2_00000042014197701904575170000018063785360277344929_">
		<path class="st2" d="M0,0h7.3c2.2,0,3.9,1.8,3.9,3.9v9.3H3.3C1.5,13.2,0,11.7,0,9.9V0z"/>
		<path class="st1" d="M0.8,0.8c0,0,0.7,4,2.9,6.5s6.7,5,6.7,5S6.8,9.5,4.6,6.8C2.6,4.4,0.8,0.8,0.8,0.8z"/>
	</g>
</g>
</svg>
